<?xml version="1.0" encoding="UTF-8"?>
<svg xmlns="http://www.w3.org/2000/svg" xmlns:xlink="http://www.w3.org/1999/xlink" viewBox="0 0 50 50" width="50px" height="50px">
<g id="surface2977331">
<path style=" stroke:none;fill-rule:nonzero;fill:rgb(100%,100%,100%);fill-opacity:1;" d="M 25 25.25 C 24.863281 25.25 24.75 25.136719 24.75 25 C 24.75 24.863281 24.863281 24.75 25 24.75 C 25.136719 24.75 25.25 24.863281 25.25 25 C 25.25 25.136719 25.136719 25.25 25 25.25 Z M 25 25.25 "/>
<path style=" stroke:none;fill-rule:nonzero;fill:rgb(0%,0%,0%);fill-opacity:1;" d="M 25 11.578125 C 17.601562 11.578125 11.59375 17.589844 11.59375 24.984375 C 11.59375 31.699219 16.546875 37.257812 22.996094 38.226562 L 23.695312 38.332031 L 23.695312 27.769531 L 20.53125 27.769531 L 20.53125 25.625 L 23.695312 25.625 L 23.695312 22.777344 C 23.695312 21.023438 24.117188 19.867188 24.8125 19.140625 C 25.511719 18.417969 26.539062 18.050781 27.972656 18.050781 C 29.117188 18.050781 29.5625 18.121094 29.988281 18.171875 L 29.988281 19.929688 L 28.496094 19.929688 C 27.652344 19.929688 26.957031 20.402344 26.597656 21.03125 C 26.234375 21.660156 26.125 22.410156 26.125 23.175781 L 26.125 25.621094 L 29.855469 25.621094 L 29.523438 27.769531 L 26.125 27.769531 L 26.125 38.351562 L 26.816406 38.253906 C 33.355469 37.367188 38.40625 31.765625 38.40625 24.984375 C 38.40625 17.589844 32.398438 11.578125 25 11.578125 Z M 25 12.796875 C 31.738281 12.796875 37.1875 18.25 37.1875 24.984375 C 37.1875 30.914062 32.945312 35.792969 27.34375 36.890625 L 27.34375 28.988281 L 30.566406 28.988281 L 31.277344 24.402344 L 27.34375 24.402344 L 27.34375 23.175781 C 27.34375 22.542969 27.457031 21.976562 27.652344 21.636719 C 27.847656 21.296875 28.035156 21.148438 28.496094 21.148438 L 31.207031 21.148438 L 31.207031 17.070312 L 30.679688 17 C 30.3125 16.949219 29.476562 16.832031 27.972656 16.832031 C 26.324219 16.832031 24.910156 17.28125 23.9375 18.296875 C 22.960938 19.3125 22.476562 20.824219 22.476562 22.777344 L 22.476562 24.40625 L 19.3125 24.40625 L 19.3125 28.988281 L 22.476562 28.988281 L 22.476562 36.851562 C 16.964844 35.683594 12.8125 30.851562 12.8125 24.984375 C 12.8125 18.25 18.261719 12.796875 25 12.796875 Z M 25 12.796875 "/>
</g>
</svg>
