<?xml version="1.0" encoding="UTF-8"?>
<svg xmlns="http://www.w3.org/2000/svg" xmlns:xlink="http://www.w3.org/1999/xlink" viewBox="0 0 50 50" width="50px" height="50px">
<g id="surface2918163">
<path style=" stroke:none;fill-rule:nonzero;fill:rgb(80.000001%,80.000001%,80.000001%);fill-opacity:1;" d="M 25 41.25 C 16.023438 41.25 8.75 33.976562 8.75 25 C 8.75 16.023438 16.023438 8.75 25 8.75 C 33.976562 8.75 41.25 16.023438 41.25 25 C 41.25 33.976562 33.976562 41.25 25 41.25 Z M 25 41.25 "/>
<path style=" stroke:none;fill-rule:nonzero;fill:rgb(0%,0%,0%);fill-opacity:1;" d="M 25 14 C 18.941406 14 14.019531 18.921875 14.019531 24.980469 C 14.019531 30.484375 18.074219 35.035156 23.359375 35.828125 L 23.933594 35.917969 L 23.933594 27.261719 L 21.339844 27.261719 L 21.339844 25.503906 L 23.933594 25.503906 L 23.933594 23.171875 C 23.933594 21.734375 24.277344 20.789062 24.847656 20.195312 C 25.417969 19.601562 26.261719 19.300781 27.4375 19.300781 C 28.375 19.300781 28.738281 19.359375 29.085938 19.402344 L 29.085938 20.839844 L 27.863281 20.839844 C 27.171875 20.839844 26.601562 21.226562 26.308594 21.742188 C 26.011719 22.257812 25.921875 22.871094 25.921875 23.5 L 25.921875 25.503906 L 28.976562 25.503906 L 28.703125 27.261719 L 25.921875 27.261719 L 25.921875 35.929688 L 26.488281 35.851562 C 31.847656 35.125 35.980469 30.535156 35.980469 24.980469 C 35.980469 18.921875 31.058594 14 25 14 Z M 25 15 C 30.519531 15 34.984375 19.460938 34.984375 24.980469 C 34.984375 29.839844 31.507812 33.835938 26.917969 34.734375 L 26.917969 28.257812 L 29.5625 28.257812 L 30.140625 24.503906 L 26.917969 24.503906 L 26.917969 23.5 C 26.917969 22.980469 27.011719 22.515625 27.171875 22.238281 C 27.332031 21.960938 27.488281 21.839844 27.863281 21.839844 L 30.085938 21.839844 L 30.085938 18.496094 L 29.652344 18.4375 C 29.351562 18.398438 28.667969 18.304688 27.433594 18.304688 C 26.085938 18.304688 24.929688 18.671875 24.128906 19.503906 C 23.328125 20.335938 22.933594 21.574219 22.933594 23.171875 L 22.933594 24.507812 L 20.339844 24.507812 L 20.339844 28.261719 L 22.933594 28.261719 L 22.933594 34.703125 C 18.417969 33.746094 15.015625 29.785156 15.015625 24.980469 C 15.015625 19.460938 19.480469 15 25 15 Z M 25 15 "/>
</g>
</svg>
