<?xml version="1.0" encoding="UTF-8"?>
<svg xmlns="http://www.w3.org/2000/svg" xmlns:xlink="http://www.w3.org/1999/xlink" viewBox="0 0 50 50" width="50px" height="50px">
<g id="surface2928520">
<path style=" stroke:none;fill-rule:nonzero;fill:rgb(80.000001%,80.000001%,80.000001%);fill-opacity:1;" d="M 25 25.25 C 24.863281 25.25 24.75 25.136719 24.75 25 C 24.75 24.863281 24.863281 24.75 25 24.75 C 25.136719 24.75 25.25 24.863281 25.25 25 C 25.25 25.136719 25.136719 25.25 25 25.25 Z M 25 25.25 "/>
<path style=" stroke:none;fill-rule:nonzero;fill:rgb(0%,0%,0%);fill-opacity:1;" d="M 25 13.121094 C 18.453125 13.121094 13.136719 18.4375 13.136719 24.984375 C 13.136719 30.925781 17.519531 35.84375 23.226562 36.703125 L 23.847656 36.796875 L 23.847656 27.445312 L 21.042969 27.445312 L 21.042969 25.546875 L 23.847656 25.546875 L 23.847656 23.027344 C 23.847656 21.476562 24.21875 20.453125 24.835938 19.8125 C 25.453125 19.171875 26.363281 18.847656 27.632812 18.847656 C 28.644531 18.847656 29.039062 18.910156 29.414062 18.953125 L 29.414062 20.507812 L 28.09375 20.507812 C 27.34375 20.507812 26.730469 20.925781 26.414062 21.484375 C 26.09375 22.039062 25.996094 22.703125 25.996094 23.378906 L 25.996094 25.546875 L 29.296875 25.546875 L 29.003906 27.445312 L 25.996094 27.445312 L 25.996094 36.808594 L 26.605469 36.726562 C 32.394531 35.941406 36.863281 30.984375 36.863281 24.984375 C 36.863281 18.4375 31.546875 13.121094 25 13.121094 Z M 25 14.199219 C 30.964844 14.199219 35.785156 19.019531 35.785156 24.984375 C 35.785156 30.230469 32.03125 34.546875 27.074219 35.515625 L 27.074219 28.523438 L 29.925781 28.523438 L 30.554688 24.46875 L 27.074219 24.46875 L 27.074219 23.378906 C 27.074219 22.820312 27.175781 22.320312 27.347656 22.019531 C 27.519531 21.71875 27.6875 21.585938 28.09375 21.585938 L 30.492188 21.585938 L 30.492188 17.980469 L 30.023438 17.914062 C 29.703125 17.871094 28.964844 17.769531 27.632812 17.769531 C 26.171875 17.769531 24.921875 18.167969 24.058594 19.066406 C 23.195312 19.964844 22.769531 21.300781 22.769531 23.027344 L 22.769531 24.46875 L 19.964844 24.46875 L 19.964844 28.523438 L 22.769531 28.523438 L 22.769531 35.484375 C 17.890625 34.449219 14.214844 30.175781 14.214844 24.984375 C 14.214844 19.019531 19.035156 14.199219 25 14.199219 Z M 25 14.199219 "/>
</g>
</svg>
