<?xml version="1.0" encoding="UTF-8"?>
<svg xmlns="http://www.w3.org/2000/svg" xmlns:xlink="http://www.w3.org/1999/xlink" viewBox="0 0 50 50" width="50px" height="50px">
<g id="surface2966021">
<path style="fill-rule:nonzero;fill:rgb(0%,0%,0%);fill-opacity:1;stroke-width:1;stroke-linecap:butt;stroke-linejoin:round;stroke:rgb(100%,100%,100%);stroke-opacity:1;stroke-miterlimit:10;" d="M 161.677185 85.999999 C 161.677185 124.271187 133.179952 155.904738 96.247106 160.906624 L 92.340227 161.43385 L 92.340227 101.695106 L 111.536655 101.695106 L 113.402224 89.595949 L 92.340227 89.595949 L 92.340227 75.779928 C 92.340227 71.453973 92.975602 67.222647 95.003394 63.667252 C 97.044704 60.111858 100.965101 57.448691 105.737171 57.448691 L 114.159266 57.448691 L 114.159266 47.539549 C 111.766472 47.24214 109.25201 46.8501 102.790114 46.8501 C 94.692466 46.8501 88.879463 48.918447 84.945547 53.014587 C 81.025149 57.097207 78.645874 63.626697 78.645874 73.52232 L 78.645874 89.595949 L 60.760751 89.595949 L 60.760751 101.708625 L 78.645874 101.708625 L 78.645874 161.33922 L 74.698439 160.744401 C 38.2793 155.269363 10.322812 123.906185 10.322812 85.999999 C 10.322812 44.241008 44.241008 10.322812 85.999999 10.322812 C 127.758989 10.322812 161.677185 44.241008 161.677185 85.999999 Z M 17.203785 85.999999 C 17.203785 119.107078 40.645057 146.387636 71.764901 152.984718 L 71.764901 108.589598 L 53.879778 108.589598 L 53.879778 82.714976 L 71.764901 82.714976 L 71.764901 73.52232 C 71.764901 62.504652 74.482142 53.974408 79.997735 48.242517 C 85.49981 42.510626 93.489309 39.982645 102.790114 39.982645 C 111.279802 39.982645 115.997797 40.631539 118.052626 40.915429 L 121.040239 41.307469 L 121.040239 64.329664 L 105.737171 64.329664 C 103.141598 64.329664 102.073627 65.167818 100.97862 67.087461 C 99.870094 69.007104 99.2212 72.211015 99.2212 75.779928 L 99.2212 82.714976 L 121.432279 82.714976 L 117.43077 108.57608 L 99.2212 108.57608 L 99.2212 153.187497 C 130.841233 146.995973 154.796212 119.47208 154.796212 85.999999 C 154.796212 47.958626 124.041371 17.203785 85.999999 17.203785 C 47.958626 17.203785 17.203785 47.958626 17.203785 85.999999 Z M 17.203785 85.999999 " transform="matrix(0.288953,0,0,0.288953,0.15,0.15)"/>
<path style=" stroke:none;fill-rule:nonzero;fill:rgb(0%,0%,0%);fill-opacity:1;" d="M 25 3.132812 C 12.933594 3.132812 3.132812 12.933594 3.132812 25 C 3.132812 35.953125 11.210938 45.015625 21.734375 46.597656 L 22.875 46.769531 L 22.875 29.539062 L 17.707031 29.539062 L 17.707031 26.039062 L 22.875 26.039062 L 22.875 21.394531 C 22.875 18.535156 23.5625 16.648438 24.695312 15.46875 C 25.832031 14.285156 27.511719 13.6875 29.851562 13.6875 C 31.71875 13.6875 32.445312 13.800781 33.136719 13.886719 L 33.136719 16.75 L 30.703125 16.75 C 29.324219 16.75 28.191406 17.519531 27.601562 18.546875 C 27.015625 19.574219 26.832031 20.796875 26.832031 22.046875 L 26.832031 26.039062 L 32.917969 26.039062 L 32.378906 29.535156 L 26.832031 29.535156 L 26.832031 46.796875 L 27.960938 46.644531 C 38.632812 45.199219 46.867188 36.058594 46.867188 25 C 46.867188 12.933594 37.066406 3.132812 25 3.132812 Z M 25 5.121094 C 35.992188 5.121094 44.878906 14.007812 44.878906 25 C 44.878906 34.671875 37.957031 42.625 28.820312 44.414062 L 28.820312 31.523438 L 34.082031 31.523438 L 35.238281 24.050781 L 28.820312 24.050781 L 28.820312 22.046875 C 28.820312 21.015625 29.007812 20.089844 29.328125 19.535156 C 29.644531 18.980469 29.953125 18.738281 30.703125 18.738281 L 35.125 18.738281 L 35.125 12.085938 L 34.261719 11.972656 C 33.667969 11.890625 32.304688 11.703125 29.851562 11.703125 C 27.164062 11.703125 24.855469 12.433594 23.265625 14.089844 C 21.671875 15.746094 20.886719 18.210938 20.886719 21.394531 L 20.886719 24.050781 L 15.71875 24.050781 L 15.71875 31.527344 L 20.886719 31.527344 L 20.886719 44.355469 C 11.894531 42.449219 5.121094 34.566406 5.121094 25 C 5.121094 14.007812 14.007812 5.121094 25 5.121094 Z M 25 5.121094 "/>
</g>
</svg>
